<?xml version="1.0" encoding="UTF-8"?>
<svg id="Layer_1" data-name="Layer 1" xmlns="http://www.w3.org/2000/svg" viewBox="0 0 48 48">
  <defs>
    <style>
      .cls-1 {
        fill: none;
        stroke: #fbf9ff;
        stroke-width: 2px;
      }

      .cls-2 {
        fill: #fff;
        stroke-width: 0px;
      }
    </style>
  </defs>
  <circle class="cls-1" cx="24" cy="24" r="23"/>
  <path class="cls-2" d="M22.4,39.2c0,.88.72,1.6,1.6,1.6s1.6-.72,1.6-1.6h-3.2ZM25.13,7.66c-.63-.63-1.64-.63-2.26,0l-10.19,10.19c-.63.63-.63,1.64,0,2.26.63.63,1.64.63,2.26,0l9.05-9.05,9.05,9.05c.62.63,1.64.63,2.26,0,.62-.63.62-1.64,0-2.26l-10.19-10.19ZM25.6,39.2V8.8h-3.2v30.41h3.2Z"/>
</svg>